{"title":"Boris - Il Film [DVD9 Ita][Nautilus-bt]","uid":6813472,"size":5136480256,"categoryP":"video","categoryS":"movies_dvdr","magnet":"?xt=urn:btih:92d6f50ff37cd2a2e16b502acd9e1cbc0a6e76a9&amp;dn=Boris+-+Il+Film+%5BDVD9+Ita%5D%5BNautilus-bt%5D&amp;tr=udp%3A%2F%2Ftracker.openbittorrent.com%3A80&amp;tr=udp%3A%2F%2Fopen.demonii.com%3A1337&amp;tr=udp%3A%2F%2Ftracker.coppersurfer.tk%3A6969&amp;tr=udp%3A%2F%2Fexodus.desync.com%3A6969","seeders":3,"leechers":0,"uploader":"someuser11","files":23,"time":1321113138,"description":"[center][b][SIZE=16pt][color=blue]Boris - Il Film[/color][/SIZE][/b]\n\n[img]http://filmup.leonardo.it/posters/loc/500/borisilfilm.jpg[/img]\n\n[b][color=green]~~Scheda~~[/color][/b]\n\nÃ‚Â« Dopo Lo squalo un altro gigante del cinema. Ã‚Â»\n\t\n(Tagline del film)\n\nBoris - Il film ÃƒÂ¨ un film del 2011, diretto e co-sceneggiato da Giacomo Ciarrapico, Mattia Torre e Luca Vendruscolo. ÃƒË† tratto dalla serie televisiva Boris, ed interpretato dallo stesso cast.\n\nTitolo originale:  \tBoris il film\nNazione:  \tItalia\nAnno:  \t2011\nGenere:  \tCommedia\nDurata:  \t108'\nRegia:  \tGiacomo Ciarrapico, Mattia Torre, Luca Vendruscolo\nSito ufficiale:  \tborisilfilm.libero.it\nocial network:  \tfacebook\n\nCast:  \tLuca Amorosino, Valerio Aprea, Ninni Bruschetta, Paolo Calabresi, Antonio Catania, Carolina Crescentini, Massimo De Lorenzo, Carlo De Ruggeri, Alberto Di Stasio, Roberta Fiorentini, Caterina Guzzanti, Francesco Pannofino, Andrea Sartoretti, Pietro Sermonti, Alessandro Tiberi, Giorgio Tirabassi\nProduzione:  \tWildside\nDistribuzione:  \t01 Distribution\nData di uscita:  \t01 Aprile 2011 (cinema)\n\n\n\n[hr]\n[b][color=green]~~Trama~~[/color][/b]\n\n[spoiler=Trama]\nIl regista RenÃƒÂ© Ferretti molla la brutta fiction tv che ha fatto per anni e tenta il grande salto: un film d'autore, per il cinema. Insomma, la libertÃƒÂ  artistica dopo una carriera asservita al conservatorismo televisivo. Ma il mondo del cinema con i suoi snobismi puÃƒÂ² essere perfino peggio di quello della tv. Soprattutto per una troupe, quella di Ferretti, a dir poco estranea all'Arte con la &quot;a&quot; maiuscola. Tra cinematografari snob, attrici nevrotiche, sceneggiatori modaioli, eroinomani, squali e improvvisati vari, il film mette a nudo un mondo, quello del cinema italiano, che aspira a una nuova giovinezza e vive invece solo una perenne immaturitÃƒÂ . \n[/spoiler]\n[hr]\n[b][color=green]~~Trailer~~[/color][/b]\t\n[youtube]_x7ERlewURQ[/youtube]\n[hr]\n\n[hr]\n\n[b][color=green]~~Scheda tecnica del Rip~~[/color][/b]\n[code]\n\nG:\\VIDEO_TS\\VTS_01_1.VOB\n   General\n      Complete name : G:\\VIDEO_TS\\VTS_01_1.VOB\n      Format : MPEG-PS\n      File size : 1 024 MiB\n      Duration : 28mn 1s\n      Overall bit rate : 5 110 Kbps\n   Video #224\n      ID : 224 (0xE0)\n      Format : MPEG Video\n      Format version : Version 2\n      Format profile : Main@Main\n      Format settings, Matrix : Default\n      Duration : 28mn 1s\n      Bit rate mode : Variable\n      Bit rate : 4 459 Kbps\n      Nominal bit rate : 7 000 Kbps\n      Width : 720 pixels\n      Height : 576 pixels\n      Display aspect ratio : 16:9\n      Frame rate : 25.000 fps\n      Standard : PAL\n      Colorimetry : 4:2:0\n      Scan type : Interlaced\n      Scan order : Top Field First\n      Bits/(Pixel*Frame) : 0.430\n      Stream size : 894 MiB (87%)\n   Audio #128\n      ID : 128 (0x80)\n      Format : AC-3\n      Format/Info : Audio Coding 3\n      Duration : 28mn 0s\n      Bit rate mode : Constant\n      Bit rate : 448 Kbps\n      Channel(s) : 6 channels\n      Channel positions : Front: L C R, Surround: L R, LFE\n      Sampling rate : 48.0 KHz\n      Video delay : -80ms\n      Stream size : 89.8 MiB (9%)\n   Text #32\n      ID : 32 (0x20)\n      Format : RLE\n      Format/Info : Run-length encoding\n[/code]\n[hr]\n[b][color=green]~~Note~~[/color][/b]\n\nBanda max 200 kbytes 24/24 7/7 :D\n\n[hr]\n\nVisita il nostro sito http://www.nautilus-bt.org ( Visit our site http://www.nautilus-bt.org )\n\n[/center]","torrent":{"xt":"urn:btih:92d6f50ff37cd2a2e16b502acd9e1cbc0a6e76a9","amp;dn":"Boris+-+Il+Film+%5BDVD9+Ita%5D%5BNautilus-bt%5D","amp;tr":["udp%3A%2F%2Ftracker.openbittorrent.com%3A80","udp%3A%2F%2Fopen.demonii.com%3A1337","udp%3A%2F%2Ftracker.coppersurfer.tk%3A6969","udp%3A%2F%2Fexodus.desync.com%3A6969"],"infoHash":"92d6f50ff37cd2a2e16b502acd9e1cbc0a6e76a9","infoHashBuffer":{"type":"Buffer","data":[146,214,245,15,243,124,210,162,225,107,80,42,205,158,28,188,10,110,118,169]},"announce":[],"urlList":[]}}